<svg width="16" height="16" viewBox="0 0 16 16" fill="none" xmlns="http://www.w3.org/2000/svg">
<path d="M4 10H3.6C2.71333 10 2 9.28667 2 8.4V3.6C2 2.71333 2.71333 2 3.6 2H8.4C9.28667 2 10 2.71333 10 3.6V4M12.4 14H7.6C7.17565 14 6.76869 13.8314 6.46863 13.5314C6.16857 13.2313 6 12.8243 6 12.4V7.6C6 7.17565 6.16857 6.76869 6.46863 6.46863C6.76869 6.16857 7.17565 6 7.6 6H12.4C12.6101 6 12.8182 6.04138 13.0123 6.12179C13.2064 6.2022 13.3828 6.32006 13.5314 6.46863C13.8314 6.76869 14 7.17565 14 7.6V12.4C14 12.6101 13.9586 12.8182 13.8782 13.0123C13.7978 13.2064 13.6799 13.3828 13.5314 13.5314C13.2313 13.8314 12.8243 14 12.4 14Z" stroke="white" stroke-opacity="0.4" stroke-width="1.2" stroke-miterlimit="10" stroke-linecap="round" stroke-linejoin="round"/>
</svg>
